<?xml version="1.0" standalone="no"?>
<!DOCTYPE svg PUBLIC "-//W3C//DTD SVG 20010904//EN"
 "http://www.w3.org/TR/2001/REC-SVG-20010904/DTD/svg10.dtd">
<svg version="1.0" xmlns="http://www.w3.org/2000/svg"
 width="200.000000pt" height="200.000000pt" viewBox="0 0 200.000000 200.000000"
 preserveAspectRatio="xMidYMid meet">

<g transform="translate(0.000000,200.000000) scale(0.100000,-0.100000)"
fill="#000000" stroke="none">
<path d="M181 1682 c-19 -9 -44 -30 -55 -45 -21 -28 -21 -37 -21 -637 0 -600
0 -609 21 -637 47 -65 28 -63 674 -63 646 0 627 -2 674 63 19 26 21 44 24 230
l3 202 200 201 c147 148 199 206 199 224 0 35 -206 240 -241 240 -17 0 -44
-20 -89 -65 l-65 -66 -5 140 c-6 156 -15 180 -81 213 -31 17 -82 18 -619 18
-537 0 -588 -1 -619 -18z m1197 -291 l2 -185 -180 -181 -180 -181 0 -112 c0
-151 1 -152 150 -152 l111 0 50 47 50 46 -3 -124 -3 -124 -575 0 -575 0 -3
565 c-1 311 0 571 3 578 3 10 124 12 577 10 l573 -3 3 -184z m332 -126 l44
-45 -32 -32 -32 -33 -47 47 -47 47 29 31 c16 16 31 30 35 30 3 0 26 -20 50
-45z m-150 -150 l44 -45 -184 -185 -185 -185 -47 0 -48 0 0 47 0 48 182 182
c101 101 185 183 188 183 3 0 26 -20 50 -45z"/>
<path d="M357 1402 c-22 -24 -21 -65 1 -85 17 -15 62 -17 438 -17 463 0 464 0
464 60 0 60 -1 60 -466 60 -395 0 -422 -1 -437 -18z"/>
<path d="M357 1162 c-22 -24 -21 -65 1 -85 17 -15 58 -17 388 -17 408 0 414 1
414 60 0 59 -6 60 -416 60 -347 0 -372 -1 -387 -18z"/>
<path d="M357 922 c-22 -24 -21 -65 1 -85 16 -15 51 -17 278 -17 288 0 304 3
304 60 0 57 -16 60 -306 60 -240 0 -262 -1 -277 -18z"/>
<path d="M357 682 c-22 -24 -21 -65 1 -85 16 -15 51 -17 278 -17 288 0 304 3
304 60 0 57 -16 60 -306 60 -240 0 -262 -1 -277 -18z"/>
</g>
</svg>
